<svg version="1.1" xmlns="http://www.w3.org/2000/svg" xmlns:xlink="http://www.w3.org/1999/xlink" width="188.76905" height="248.15279" viewBox="0,0,188.76905,248.15279"><g transform="translate(-146.19942,-61.84721)"><g data-paper-data="{&quot;isPaintingLayer&quot;:true}" fill-rule="nonzero" stroke="none" stroke-linecap="butt" stroke-linejoin="miter" stroke-miterlimit="10" stroke-dasharray="" stroke-dashoffset="0" style="mix-blend-mode: normal"><path d="M155.23942,214.2736c-0.01559,0.00121 -0.03109,0.00231 -0.04649,0.00331c-0.27655,2.15351 -0.55309,4.30702 -0.82964,6.46053c-1.02152,7.95478 -3.10872,16.48517 -3.16395,24.49519c-0.02229,3.23282 0.75314,6.42179 1.12066,9.63373c0.75787,6.62345 1.51575,13.2469 2.27362,19.87035c0.37894,3.31172 0.80722,6.61817 1.13681,9.93517c0.13799,1.38872 -0.26246,2.91396 0.33982,4.17287c0.60228,1.25891 2.07706,1.869 3.03583,2.88307c0.44135,0.4668 0.51607,1.44967 1.15128,1.54557c1.28133,0.19344 2.52733,-0.58043 3.80489,-0.79735c6.52042,-1.10711 12.90096,-2.52755 19.35409,-4.01241c8.09182,-1.86192 16.35195,-4.45647 24.56627,-5.64392c8.21433,-1.18746 16.87107,-1.03839 25.15891,-1.54431c18.32525,-1.11862 36.63348,-2.32386 54.98234,-2.96022c10.04181,-0.34826 20.25446,-0.48593 30.28209,0.3766c2.47967,0.21329 7.57538,1.93428 10.18165,1.47603c1.48228,-0.26062 -0.4124,-2.98785 -0.78146,-4.44692c-1.06259,-4.20093 -2.04995,-8.47862 -2.9052,-12.72813c-2.30426,-11.44927 -4.25338,-22.98253 -6.37846,-34.4666c-1.74506,-9.43039 -4.21178,-19.01091 -5.27593,-28.5394c-0.92559,-8.28778 -0.93447,-16.79258 -1.39539,-25.12078c-0.92099,-16.6412 -1.84198,-33.2824 -2.76297,-49.9236c-0.7372,-13.32034 -1.6794,-26.64733 -2.21221,-39.97718c-0.19907,-4.9803 -0.42855,-10.05008 -0.37038,-15.03378c0.0122,-1.04537 0.44718,-3.46489 -0.52925,-3.09135c-1.15349,0.44127 -2.0001,1.45462 -3.05804,2.09182c-2.74012,1.65041 -5.51085,3.27653 -8.0571,5.2127c-6.36291,4.83836 -12.54627,9.91918 -19.41313,14.01866c-4.9027,2.92182 -10.31391,7.41964 -15.69512,9.31706c-0.32664,0.11517 -9.57944,2.17231 -10.13845,2.2972c-4.85738,1.08515 -9.94377,2.70869 -14.88092,3.3121c-4.93715,0.60341 -10.26484,0.25265 -15.24058,0.36928c-14.30576,0.33533 -28.62555,0.16298 -42.92413,0.58553c-4.3931,0.12958 -8.7156,0.28132 -13.09852,0.61007l-0.22309,0.0167c0,0 -0.86975,0.06512 -1.62027,-0.39528c-2.79691,7.44699 -3.26982,15.63886 -4.43816,23.4983c-0.98026,6.5942 -1.96052,13.18841 -2.94078,19.78261c-0.36508,2.45591 -1.11235,4.88249 -1.11085,7.36539c0.00452,7.51953 0.78461,15.1688 1.56992,22.76938c0.27712,-2.49892 0.60228,-4.98878 1.10302,-7.40072c0.93438,-4.50072 2.82132,-9.02883 4.19609,-13.41259c2.49362,-7.9515 4.98725,-15.90299 7.48087,-23.85449c0,0 0.74809,-2.38545 3.13354,-1.63736c2.38545,0.74809 1.63736,3.13354 1.63736,3.13354c-2.49362,7.9515 -4.98725,15.90299 -7.48087,23.85449c-1.32999,4.24098 -3.18415,8.63213 -4.08296,12.98708c-0.98266,4.76121 -1.25352,9.83751 -1.87292,14.66092c-0.67822,5.28141 -1.35643,10.56281 -2.03465,15.84422c0.19636,2.5369 0.39272,5.0738 0.58908,7.6107l0.16337,2.1107c0,0 0.19293,2.49254 -2.29962,2.68547zM150.84717,189.92292c-0.89749,-11.59525 -2.75644,-23.55107 -2.70688,-35.17644c0.01138,-2.66983 0.76954,-5.28397 1.16211,-7.9248c0.98026,-6.5942 1.96052,-13.18841 2.94078,-19.78261c1.25015,-8.40975 1.83815,-17.02032 4.87819,-24.97949c0,0 0.89873,-2.33287 3.2316,-1.43415c0.19044,0.07337 0.35935,0.15629 0.50897,0.24672c0.62858,-1.08338 2.01199,-1.18696 2.01199,-1.18696l0.22309,-0.0167c4.45771,-0.33321 8.85674,-0.49007 13.32444,-0.62186c14.30889,-0.42129 28.63844,-0.25076 42.95439,-0.58633c4.8116,-0.11278 9.97608,0.24988 14.75118,-0.33373c4.7751,-0.5836 9.70022,-2.17939 14.39735,-3.22874c3.12453,-0.69803 6.3516,-1.02591 9.3804,-2.06337c5.07981,-1.74 10.35705,-6.20903 14.9836,-8.96628c8.22367,-4.89202 15.07625,-11.65564 23.08528,-16.83724c1.01249,-0.65505 9.55703,-5.22186 10.27377,-5.18349c7.00296,0.37486 5.27562,8.73076 5.37971,12.95943c0.40949,16.63451 1.53394,33.24557 2.45341,49.85923c0.92099,16.6412 1.84198,33.2824 2.76297,49.9236c0.45505,8.22223 0.45866,16.62029 1.36759,24.80282c1.04641,9.42019 3.50266,18.90054 5.2279,28.22387c2.6011,14.0565 4.94706,28.17966 8.12888,42.11709c1.04579,4.58089 4.79524,11.47715 -0.64864,14.85739c-1.17523,0.72973 -2.75774,0.32605 -4.14041,0.28271c-2.95949,-0.09276 -5.85133,-0.94644 -8.80139,-1.20019c-9.82791,-0.84535 -19.83834,-0.70254 -29.68029,-0.36121c-18.30502,0.63484 -36.56951,1.83799 -54.851,2.95394c-8.14908,0.49744 -16.67228,0.33471 -24.7482,1.50216c-8.07592,1.16745 -16.2041,3.73729 -24.16044,5.56803c-6.55919,1.50926 -13.08951,3.3203 -19.78663,4.09208c-2.02901,0.23382 -4.1128,1.0526 -6.0998,0.57997c-1.34917,-0.32091 -2.11823,-1.79472 -3.10478,-2.76938c-1.37941,-1.36278 -3.14967,-2.48722 -3.9865,-4.23641c-0.23277,-0.48654 -1.2578,-9.78951 -1.3654,-10.72988c-0.94734,-8.27931 -1.89468,-16.55862 -2.84203,-24.83793c-0.04335,-0.37884 -1.15433,-10.03787 -1.15296,-10.23661c0.05666,-8.21825 2.15684,-16.93886 3.20455,-25.09757c0.78593,-6.12023 1.57187,-12.24046 2.3578,-18.36069c-0.3183,-4.11229 -0.63979,-8.26587 -0.91465,-11.81698z" fill="#000000" stroke-width="0.5"/><text transform="translate(179.38619,192.5063) scale(0.5,0.5)" font-size="40" xml:space="preserve" fill="#000000" fill-rule="nonzero" stroke="none" stroke-width="1" stroke-linecap="butt" stroke-linejoin="miter" stroke-miterlimit="10" stroke-dasharray="" stroke-dashoffset="0" font-family="Sans Serif" font-weight="normal" text-anchor="start" style="mix-blend-mode: normal"><tspan x="0" dy="0">uepgard click</tspan><tspan x="0" dy="46.150000000000006px">powahhh</tspan><tspan x="0" dy="46.150000000000006px"> </tspan><tspan x="0" dy="46.150000000000006px">price:</tspan></text><path d="M150.66066,286.03156v-220.72072h165.87374v220.72072z" fill="none" stroke-width="0"/><path d="M150.5,310v-247h184.46847v247z" fill="none" stroke-width="0"/></g></g></svg>