<svg version="1.1" xmlns="http://www.w3.org/2000/svg" xmlns:xlink="http://www.w3.org/1999/xlink" width="293.98311" height="357.50643" viewBox="0,0,293.98311,357.50643"><g transform="translate(-123.4217,21.92642)"><g data-paper-data="{&quot;isPaintingLayer&quot;:true}" fill-rule="nonzero" stroke-linecap="butt" stroke-linejoin="miter" stroke-miterlimit="10" stroke-dasharray="" stroke-dashoffset="0" style="mix-blend-mode: normal"><path d="M168.88222,-20.75606c1.36092,-2.09712 3.45804,-0.7362 3.45804,-0.7362l0.25144,0.4111c3.14459,0.52315 6.28918,1.0463 9.43377,1.56945c18.9591,3.15414 38.20388,2.5177 57.33111,4.00176c14.92007,1.15763 30.07028,2.79975 44.73384,5.73266c6.50526,1.30114 13.6044,2.0089 19.92585,4.00704c2.80359,0.88618 5.28404,2.58085 7.92139,3.88078c7.47469,3.68422 14.94938,7.36843 22.42407,11.05265c4.48481,2.21053 8.96963,4.42106 13.45444,6.63159c0.49286,0.24293 9.11561,4.47939 9.3511,4.65359c0.2355,0.1742 6.8101,7.17949 7.18663,7.57967c3.42632,3.64148 6.85264,7.28295 10.27895,10.92443c4.56842,4.8553 9.13685,9.7106 13.70527,14.5659c2.16395,2.29984 3.88113,5.10254 6.45088,6.93784c1.04032,0.74299 2.38146,0.9307 3.56628,1.41078c3.05941,1.23966 6.0587,2.63102 9.1537,3.77892c2.87911,1.06783 7.61739,1.66451 9.00881,5.27651c1.59557,4.14197 -2.1079,10.42399 -3.57588,14.0558c-4.20078,10.39284 -8.01551,21.49396 -10.54071,32.41789c-4.10659,17.72028 -9.27427,35.52698 -12.38931,53.44386c-2.83111,16.28383 -3.87202,33.10345 -5.79453,49.52326c-2.13331,18.22019 -3.9955,36.49601 -6.40301,54.68171c-2.0796,15.70873 -5.08514,31.35304 -7.62246,46.99531c-0.3651,2.19812 -0.67703,7.04533 -2.63252,8.96022c-3.6927,3.61603 -8.94477,3.01185 -13.60232,3.34443c-0.32505,0.02321 -10.06176,0.72264 -10.23038,0.7174c-6.618,-0.20581 -13.51055,-1.80075 -20.0771,-2.68238c-8.20875,-1.10212 -16.95078,-1.49351 -25.01308,-3.36986c-8.03974,-1.8711 -16.03603,-5.3912 -23.8629,-8.02844c-17.3736,-5.85398 -34.74721,-11.70795 -52.12081,-17.56193c-9.4684,-3.19035 -19.29842,-5.90115 -28.56581,-9.62961c-6.15638,-2.47684 -12.11836,-5.71885 -18.11993,-8.5534c-12.05628,-5.6942 -24.11256,-11.3884 -36.16884,-17.0826c-3.01407,-1.42355 -6.04878,-2.8042 -9.04221,-4.27065c-1.75691,-0.86069 -3.80002,-1.32046 -5.23893,-2.64601c-3.54336,-3.26419 -1.56611,-10.36715 -1.36234,-14.43333c0.5572,-11.11863 1.15769,-22.23513 1.7428,-33.35232c0.70485,-13.39228 2.60538,-26.62913 4.27312,-39.93276c1.45063,-11.57179 2.38661,-23.35189 4.37054,-34.84257c1.70141,-9.85434 4.33252,-19.64191 6.48812,-29.40841c3.23291,-14.64747 6.46582,-29.29493 9.69873,-43.9424c1.79476,-8.13161 3.10349,-16.58719 5.43133,-24.58013c1.82141,-6.25402 4.59723,-12.3891 6.86663,-18.49645c0,0 0.87079,-2.34344 3.21423,-1.47265c2.34344,0.87079 1.47265,3.21423 1.47265,3.21423c-2.22884,5.99816 -4.97004,12.02565 -6.75733,18.16786c-2.29348,7.88182 -3.57523,16.22627 -5.34503,24.24476c-3.23291,14.64747 -6.46582,29.29493 -9.69873,43.9424c-2.13893,9.69092 -4.7553,19.40357 -6.44351,29.18146c-1.97072,11.41418 -2.89547,23.11885 -4.33647,34.61381c-1.65272,13.18386 -3.54271,26.30226 -4.2412,39.57363c-0.58489,11.11302 -1.18516,22.22534 -1.74215,33.33979c-0.15711,3.13497 -0.64495,6.26405 -0.54028,9.40121c0.01522,0.45607 0.10226,1.02587 0.47985,1.28212c1.1407,0.77414 2.54692,1.05717 3.80328,1.62464c4.55374,2.05684 9.04511,4.27202 13.56331,6.40597c10.54924,4.98242 21.09849,9.96485 31.64773,14.94727c5.91363,2.79301 11.78761,5.99675 17.85369,8.43699c9.17686,3.69163 18.91714,6.36961 28.29326,9.52886c17.3736,5.85398 34.74721,11.70795 52.12081,17.56193c7.67343,2.58554 15.52168,6.06384 23.40251,7.89748c7.90378,1.83898 16.49367,2.20291 24.54227,3.28353c6.39571,0.8587 13.12236,2.43991 19.56718,2.64033c4.8085,0.14954 9.90244,-0.75479 14.70613,-1.06324c2.07382,-0.13316 3.61897,0.22089 5.29536,-1.39048c1.56628,-1.50552 1.03418,-4.22537 1.37282,-6.37133c2.53136,-15.60548 5.53455,-31.21375 7.60596,-46.88591c2.39888,-18.14979 4.2599,-36.38825 6.38893,-54.57197c1.93336,-16.51251 2.98734,-33.4221 5.83451,-49.79826c3.13109,-18.00924 8.31684,-35.905 12.4445,-53.71622c2.22323,-9.57054 5.50142,-19.21131 8.87215,-28.44683c0.01597,-0.04376 3.7381,-9.25678 3.77661,-9.35122c0.34818,-0.85379 2.08007,-4.45711 1.71643,-5.6405c-0.19871,-0.64665 -1.07579,-0.84975 -1.70229,-1.10499c-1.42713,-0.58141 -2.96288,-0.85731 -4.4106,-1.38537c-4.10012,-1.49556 -10.26828,-3.23919 -13.83154,-5.76565c-0.30121,-0.21357 -6.80053,-7.1457 -7.25439,-7.62807c-4.56842,-4.8553 -9.13685,-9.7106 -13.70527,-14.5659c-3.42632,-3.64148 -6.85264,-7.28295 -10.27895,-10.92443c-2.18259,-2.31965 -3.95803,-5.0921 -6.51864,-6.98623c-2.56061,-1.89413 -5.73129,-2.7804 -8.58815,-4.18853c-4.48481,-2.21053 -8.96963,-4.42106 -13.45444,-6.63159c-5.97975,-2.94737 -11.95951,-5.89474 -17.93926,-8.84212c-3.74952,-1.84811 -7.80956,-4.59506 -11.8049,-5.84216c-6.12399,-1.91154 -13.00054,-2.57868 -19.29727,-3.83811c-14.46832,-2.89386 -29.41889,-4.50834 -44.13998,-5.65053c-19.27709,-1.49569 -38.65511,-0.87537 -57.76488,-4.05457c-3.14459,-0.52315 -6.28918,-1.0463 -9.43377,-1.56945l-2.15273,-1.14908c0,0 -2.09712,-1.36092 -0.7362,-3.45804z" fill="#000000" stroke="none" stroke-width="0.5"/><path d="M125.5,335.33001v-356h291.65482v356z" fill="none" stroke="#ffffff" stroke-width="0.5"/><text transform="translate(182.5,117.58001) scale(0.99837,0.99837)" font-size="40" xml:space="preserve" fill="#000000" fill-rule="nonzero" stroke="none" stroke-width="1" stroke-linecap="butt" stroke-linejoin="miter" stroke-miterlimit="10" stroke-dasharray="" stroke-dashoffset="0" font-family="Sans Serif" font-weight="normal" text-anchor="start" style="mix-blend-mode: normal"><tspan x="0" dy="0">REBIRTH!!!</tspan></text><text transform="translate(200.5,178.33001) scale(0.5,0.5)" font-size="40" xml:space="preserve" fill="#000000" fill-rule="nonzero" stroke="none" stroke-width="1" stroke-linecap="butt" stroke-linejoin="miter" stroke-miterlimit="10" stroke-dasharray="" stroke-dashoffset="0" font-family="Sans Serif" font-weight="normal" text-anchor="start" style="mix-blend-mode: normal"><tspan x="0" dy="0">multipliah!!!!!</tspan></text></g></g></svg>