<svg version="1.1" xmlns="http://www.w3.org/2000/svg" xmlns:xlink="http://www.w3.org/1999/xlink" width="226.25" height="249.28156" viewBox="0,0,226.25,249.28156"><g transform="translate(-150.5,-60.75)"><g data-paper-data="{&quot;isPaintingLayer&quot;:true}" fill-rule="nonzero" stroke-linecap="butt" stroke-linejoin="miter" stroke-miterlimit="10" stroke-dasharray="" stroke-dashoffset="0" style="mix-blend-mode: normal"><path d="M162.17828,66.46086c0.73415,-2.38978 3.12392,-1.65563 3.12392,-1.65563l2.494,0.77324c13.12378,1.97636 26.24366,3.97891 39.36534,5.96918c24.65137,3.73907 49.66217,7.79207 73.98684,13.30676c9.75797,2.21225 19.40836,5.18419 29.07576,7.7674c12.35212,3.30059 25.41817,6.24346 38.15519,7.59729c3.75857,0.3995 12.55544,-1.60992 14.4215,3.41394c0.7049,1.89774 -0.26425,4.04736 -0.60263,6.04331c-0.51933,3.06327 -1.42127,6.05653 -1.87851,9.12968c-1.71505,11.52691 -3.25214,23.06103 -4.714,34.62272c-1.15966,9.15061 -1.41167,18.40908 -1.95253,27.61508c-1.46608,24.95457 -1.72787,49.84007 -1.99358,74.8341c-0.07569,6.76831 -0.93571,13.42579 -1.64941,20.15318c-0.75502,7.11691 -0.87208,13.70602 -3.93104,20.24103c-1.72388,3.68282 -2.67001,6.64698 -6.08551,9.2754c-4.76891,3.66995 -10.31563,2.93614 -15.77546,2.13855c-13.25485,-1.93633 -26.41206,-4.71933 -39.43024,-7.88657c-17.75107,-4.31972 -35.5759,-7.84668 -53.51163,-11.31383c-8.18186,-1.58163 -16.36373,-3.16326 -24.54559,-4.7449c-3.18698,-0.61607 -6.32432,-1.58314 -9.55832,-1.86174c-4.77207,-0.4111 -9.9435,0.20355 -14.73499,0.29499c-2.76388,0.03801 -9.00867,0.79156 -11.09419,-2.12961c-1.18174,-1.65525 -0.22107,-4.06404 -0.20956,-6.09781c0.03756,-6.6361 0.72758,-13.34292 1.08928,-19.97031c1.26866,-23.24555 1.22144,-46.62184 1.75279,-69.89655c0.37269,-16.29752 1.43104,-32.59592 2.20852,-48.87911c0.47258,-9.89749 -0.01956,-20.42731 1.45585,-30.21912c0.02501,-0.16596 2.45758,-9.62099 2.53824,-9.93506c0,0 0.62189,-2.42142 3.04331,-1.79952c2.42142,0.62189 1.79952,3.04331 1.79952,3.04331c-0.80811,3.1465 -1.95285,6.22391 -2.43688,9.43626c-1.44938,9.61901 -0.9414,19.98777 -1.40573,29.7126c-0.7755,16.24164 -1.83365,32.4988 -2.20413,48.75476c-0.53256,23.3277 -0.48881,46.75617 -1.75891,70.05475c-0.27216,4.99259 -0.54464,9.98516 -0.81696,14.97774c-0.09077,1.66419 -0.06898,3.33836 -0.27232,4.99258c-0.12278,0.99883 -1.16587,2.04299 -0.70232,2.93622c0.35331,0.68081 1.52999,0.13446 2.29702,0.13666c1.54084,0.00441 3.08071,-0.07791 4.62107,-0.11687c4.96719,-0.0948 10.31352,-0.70354 15.25955,-0.27745c0.17237,0.01485 9.75034,1.8708 10.07815,1.93417c8.18186,1.58163 16.36373,3.16326 24.54559,4.7449c18.0137,3.48222 35.91653,7.0262 53.7449,11.36473c11.20835,2.72819 22.61933,5.38452 34.03193,7.0681c5.09219,0.7512 12.34959,3.20749 16.95155,-0.43156c4.44283,-3.51322 6.49144,-10.87764 7.02946,-16.13001c1.00815,-9.84194 2.57727,-19.72689 2.67675,-29.62305c0.26657,-25.07401 0.53113,-50.03962 2.00191,-75.07419c0.54748,-9.31891 0.81474,-18.68556 1.98341,-27.94904c1.4665,-11.59836 3.00057,-23.17071 4.72921,-34.7331c0.47441,-3.17322 1.08032,-6.33624 1.93261,-9.42947c0.27719,-1.006 0.90147,-1.94983 0.91682,-2.99321c0.00436,-0.29635 -0.57407,-0.16855 -0.87009,-0.18307c-1.44369,-0.07081 -2.89084,-0.03099 -4.33567,-0.07228c-3.43815,-0.09826 -6.87312,-0.49588 -10.26086,-1.09064c-11.37812,-1.99755 -22.66008,-3.86439 -33.82382,-6.84744c-9.60579,-2.56675 -19.19483,-5.52354 -28.89051,-7.72167c-24.20711,-5.48804 -49.09864,-9.51852 -73.63115,-13.23956c-13.2434,-2.00873 -26.48837,-4.00748 -39.72844,-6.03807l-2.84938,-0.86826c0,0 -2.38978,-0.73415 -1.65563,-3.12392z" fill="#000000" stroke="none" stroke-width="0.5"/><text transform="translate(215.5,134) scale(0.5,0.5)" font-size="40" xml:space="preserve" fill="#000000" fill-rule="nonzero" stroke="none" stroke-width="1" stroke-linecap="butt" stroke-linejoin="miter" stroke-miterlimit="10" stroke-dasharray="" stroke-dashoffset="0" font-family="Sans Serif" font-weight="normal" text-anchor="start" style="mix-blend-mode: normal"><tspan x="0" dy="0">add click</tspan><tspan x="0" dy="46.150000000000006px">pah</tspan><tspan x="0" dy="46.150000000000006px">secundsss</tspan></text><text transform="translate(213.5,225) scale(0.5,0.5)" font-size="40" xml:space="preserve" fill="#000000" fill-rule="nonzero" stroke="none" stroke-width="1" stroke-linecap="butt" stroke-linejoin="miter" stroke-miterlimit="10" stroke-dasharray="" stroke-dashoffset="0" font-family="Sans Serif" font-weight="normal" text-anchor="start" style="mix-blend-mode: normal"><tspan x="0" dy="0">preice:</tspan></text><path d="M150.66066,310.03156v-244.72072h208.87374v244.72072z" fill="none" stroke="none" stroke-width="0"/><path d="M150.5,310v-247h216v247z" fill="none" stroke="none" stroke-width="0"/><path d="M152.5,306v-245h224v245z" fill="none" stroke="#ffffff" stroke-width="0.5"/></g></g></svg>